<?xml version="1.0" encoding="UTF-8"?>
<svg id="Layer_1" xmlns="http://www.w3.org/2000/svg" viewBox="0 0 948.47 884.36">
  <defs>
    <style>
      .cls-1 {
        fill: #00b2db;
      }

      .cls-2 {
        fill: #212154;
      }
    </style>
  </defs>
  <path class="cls-1" d="M714.46,299.96c-3.87,12.23-8.56,23.93-13.77,34.99,15.7,33.09,23.98,69.52,23.98,107.23,0,66.89-26.05,129.79-73.35,177.08-47.31,47.3-110.19,73.36-177.09,73.36-31.07,0-61.25-5.69-89.44-16.45-4.32-1.65-8.6-3.42-12.82-5.31-12.26-5.49-24.07-12.03-35.36-19.47l-28.68,14.97c47.82,35.63,105.58,54.91,166.3,54.91,74.54,0,144.62-29.03,197.34-81.75,52.71-52.71,81.74-122.79,81.74-197.33,0-50.85-13.53-99.62-38.86-142.22"/>
  <path class="cls-1" d="M240.26,531.63c-10.76-28.19-16.45-58.37-16.46-89.45,0-66.9,26.05-129.78,73.35-177.08,47.3-47.3,110.2-73.35,177.09-73.35,37.73,0,74.19,8.3,107.3,24.02,11.06-5.21,22.77-9.89,35-13.76-42.63-25.35-91.42-38.9-142.31-38.9-74.54,0-144.62,29.03-197.33,81.74-52.71,52.71-81.74,122.79-81.74,197.34,0,60.72,19.27,118.47,54.9,166.29l14.97-28.69c-7.43-11.29-13.97-23.08-19.45-35.34-1.89-4.23-3.66-8.5-5.31-12.82"/>
  <path class="cls-1" d="M402.39,548.45l-1.01-.56-.78-.36-.97-.61-1.9-1.12-.81-.5c-.87-.53-1.49-.91-2.12-1.33l-1.81-1.26-.24-.19c-3.42-2.41-6.49-4.93-9.32-7.67l-1.47-1.45c-2.84-2.9-5.47-6.06-8.01-9.64l-.21-.26-1.36-1.96c-.38-.57-.73-1.15-1.08-1.72l-1.32-2.17-1-1.7-.3-.61-.84-1.56c-.79-1.52-1.47-3.02-2.13-4.5-1.34.94-2.63,1.98-3.82,3.17-21.11,19.01-159.41,199.96-159.41,199.96,0,0,182.11-136.77,201.28-157.71,1.26-1.25,2.36-2.6,3.35-4.01-1.43-.63-2.87-1.28-4.33-2.04l-.4-.19Z"/>
  <path class="cls-2" d="M582.13,447.88c-21.07,11.67-41.84,19.93-41.84,19.93v-.02c17.64-12.45,33.62-25.03,48.08-37.62,63.15-54.97,97.5-109.95,116.16-153.2.43-.98.85-1.96,1.26-2.93.25-.59.49-1.18.73-1.76,7.46-17.85,12.2-33.7,15.19-46.67.47-2.03.89-3.98,1.28-5.88.24-1.16.47-2.28.68-3.37,0-.03,0-.05,0-.07.01-.03.01-.05.02-.09,2.91-15.09,3.08-23.92,3.08-23.92.06-1.33.09-2.27.1-2.77h0c-.51,0-1.45.03-2.78.09,0,0-8.82.17-23.91,3.08-.03,0-.06,0-.09.01-.02,0-.04,0-.07,0-1.09.22-2.21.44-3.37.68-1.9.39-3.84.81-5.88,1.28-12.97,2.98-28.82,7.73-46.67,15.18-.59.24-1.17.48-1.76.73-.98.4-1.95.83-2.94,1.26-43.24,18.66-98.22,53.01-153.19,116.16-62.3,19.53-107.08,56.3-138,92.34-10.49,12.22-19.36,24.3-26.8,35.62-2.59,3.94-4.95,7.73-7.2,11.44-1.15,1.91-2.33,3.82-3.39,5.65-14.94,25.76-21.32,44.22-21.32,44.22,30.58-43.85,78.36-56.34,107.21-59.79l.03-.02,2.51-.3s.04-.07.06-.11c-4.6,8.76-9.17,17.77-13.67,27.12,0,0,0,.01,0,.01.61,3.54,2.16,10.26,5.92,17.5.05.09.09.15.13.24.02.04.03.06.04.09.17.32.34.65.53.98.03.03.04.08.07.12.03.06.06.1.09.16.19.34.37.66.55.98l.14.22.2.33c.17.29.37.59.55.88.24.4.48.79.74,1.19l.04.06s0,0,0,0l.37.54s.02.02.03.04c.11.15.22.28.33.44,1.6,2.3,3.3,4.36,5.12,6.27l-.02.03.56.56c.08.09.16.18.25.27h0s.02,0,.02,0h0s-.01.02-.01.02h.01c.08.1.18.17.27.26l.57.57.03-.03c1.91,1.82,3.97,3.52,6.27,5.12.16.1.29.22.44.32.02,0,.03.02.05.03l.53.38s0,0,.01,0l.06.04c.4.27.79.5,1.19.74.29.18.59.38.89.55l.32.2.22.13c.32.18.63.36.97.55.06.03.1.06.16.09.04.02.08.04.12.07.33.19.66.36.98.52.03.01.05.03.09.04.09.05.14.09.24.13,7.24,3.75,13.96,5.31,17.5,5.91,0,0,.01,0,.01,0,9.39-4.52,18.45-9.11,27.26-13.74-.08.04-.16.09-.24.13l-.29,2.51-.03.03c-3.45,28.85-15.94,76.62-59.78,107.21,0,0,18.46-6.38,44.22-21.32,1.83-1.06,3.74-2.23,5.65-3.39,3.71-2.25,7.5-4.61,11.44-7.2,11.31-7.44,23.39-16.31,35.61-26.8,32.51-27.9,65.58-67.14,86.09-120.3M420.5,419.34c-.09.14-.18.3-.27.45.09-.15.18-.3.27-.45M476.12,339.98c-.52.64-1.05,1.26-1.56,1.9.52-.64,1.05-1.26,1.56-1.9M464.79,354.18c-.52.68-1.04,1.36-1.57,2.04.52-.68,1.05-1.36,1.57-2.04M453.15,369.72c-.15.22-.3.43-.46.65.15-.21.3-.43.46-.65M442.05,385.54s0,.01-.02.02c.01-.01.01-.01.02-.02M431.56,401.48c-.24.36-.47.73-.7,1.1.23-.37.47-.74.7-1.1M422.88,456.55c23.71-43.49,50.09-82.15,78.77-115.1,44.28-50.87,93.36-88.15,145.87-110.81l4.46-1.89c14.66-6.12,29.24-10.88,43.39-14.13,1.88-.43,3.69-.82,5.45-1.19l2.68-.53s-146.99,41.41-280.62,243.66"/>
</svg>