<?xml version="1.0" encoding="UTF-8"?>
<svg id="Layer_1" data-name="Layer 1" xmlns="http://www.w3.org/2000/svg" viewBox="0 0 1583.31 473.47">
  <defs>
    <style>
      .cls-1 {
        fill: #00b2db;
      }

      .cls-1, .cls-2 {
        stroke-width: 0px;
      }

      .cls-2 {
        fill: #212154;
      }
    </style>
  </defs>
  <path class="cls-1" d="M436.52,184.46c-1.42,4.5-3.15,8.8-5.06,12.86,5.77,12.16,8.81,25.56,8.81,39.41,0,24.59-9.57,47.71-26.96,65.09-17.39,17.39-40.5,26.96-65.09,26.96-11.42,0-22.51-2.09-32.88-6.05-1.59-.61-3.16-1.26-4.71-1.95-4.51-2.02-8.85-4.42-12.99-7.16l-10.54,5.5c17.58,13.1,38.81,20.18,61.13,20.18,27.4,0,53.16-10.67,72.54-30.05,19.37-19.37,30.04-45.14,30.04-72.53,0-18.69-4.98-36.62-14.28-52.28"/>
  <path class="cls-1" d="M262.22,269.61c-3.96-10.36-6.05-21.46-6.05-32.88,0-24.59,9.58-47.7,26.96-65.09,17.39-17.39,40.51-26.96,65.09-26.96,13.87,0,27.27,3.05,39.44,8.83,4.07-1.92,8.37-3.64,12.87-5.06-15.67-9.32-33.6-14.3-52.31-14.3-27.4,0-53.16,10.67-72.53,30.04-19.37,19.38-30.05,45.14-30.04,72.54,0,22.32,7.08,43.54,20.18,61.12l5.5-10.54c-2.73-4.15-5.13-8.48-7.15-12.99-.69-1.55-1.35-3.12-1.95-4.71"/>
  <path class="cls-1" d="M321.82,275.8l-.37-.21-.29-.13-.36-.22-.7-.41-.3-.18c-.32-.2-.55-.34-.78-.49l-.67-.46-.09-.07c-1.26-.89-2.39-1.81-3.43-2.82l-.54-.54c-1.05-1.07-2.01-2.23-2.94-3.54l-.08-.1-.5-.72c-.14-.21-.27-.42-.4-.63l-.49-.8-.37-.63-.11-.22-.31-.57c-.29-.56-.54-1.11-.78-1.65-.49.35-.97.73-1.41,1.16-7.76,6.99-58.59,73.5-58.59,73.5,0,0,66.94-50.27,73.99-57.97.46-.46.87-.95,1.23-1.47-.52-.23-1.05-.47-1.59-.75l-.15-.07Z"/>
  <path class="cls-2" d="M387.88,238.83c-7.74,4.29-15.38,7.32-15.38,7.32h0c6.48-4.58,12.35-9.21,17.67-13.83,23.21-20.21,35.84-40.42,42.7-56.31.16-.36.31-.72.46-1.08.09-.22.18-.43.27-.65,2.74-6.56,4.48-12.39,5.58-17.15.17-.75.32-1.46.47-2.16.09-.43.17-.84.25-1.24,0,0,0-.02,0-.02,0-.01,0-.02,0-.03,1.07-5.55,1.13-8.79,1.13-8.79.02-.49.03-.83.04-1.02h0c-.19,0-.53.01-1.02.03,0,0-3.24.06-8.79,1.13-.01,0-.02,0-.03,0,0,0-.01,0-.03,0-.4.08-.81.16-1.24.25-.7.14-1.41.3-2.16.47-4.77,1.1-10.59,2.84-17.15,5.58-.22.09-.43.18-.65.27-.36.15-.72.31-1.08.46-15.89,6.86-36.1,19.49-56.31,42.7-22.9,7.18-39.36,20.7-50.72,33.94-3.86,4.49-7.12,8.93-9.85,13.09-.95,1.45-1.82,2.84-2.65,4.2-.42.7-.86,1.4-1.25,2.08-5.49,9.47-7.84,16.25-7.84,16.25,11.24-16.12,28.8-20.71,39.41-21.98h.01s.92-.12.92-.12l.02-.04c-1.69,3.22-3.37,6.53-5.03,9.97,0,0,0,0,0,0,.22,1.3.8,3.77,2.17,6.43.02.03.03.06.05.09,0,.01,0,.02.02.03.06.12.12.24.19.36,0,.01.01.03.02.04.01.02.02.03.03.06.07.12.14.24.2.36l.05.08.07.12c.06.11.14.22.2.32.09.15.18.29.27.44v.02s.01,0,.02,0l.14.2s0,0,.01.01c.04.06.08.1.12.16.59.85,1.21,1.6,1.88,2.31h0s.2.22.2.22c.03.03.06.07.09.1h0s0,0,0,0h0s0,0,0,0h0s.07.06.1.09l.21.21h.01c.7.66,1.46,1.28,2.3,1.87.06.04.11.08.16.12,0,0,0,0,.02.01l.2.14s0,0,0,0h.02c.15.11.29.2.44.29.11.07.22.14.32.2l.12.07.08.05c.12.07.23.13.36.2.02,0,.04.02.06.03.02,0,.03.01.04.03.12.07.24.13.36.19,0,0,.02.01.03.02.03.02.05.03.09.05,2.66,1.38,5.13,1.95,6.43,2.17,0,0,0,0,0,0,3.45-1.66,6.78-3.35,10.02-5.05-.03.02-.06.03-.09.05l-.11.92h0c-1.27,10.62-5.86,28.18-21.97,39.42,0,0,6.78-2.34,16.25-7.83.67-.39,1.38-.82,2.08-1.25,1.36-.83,2.76-1.7,4.21-2.64,4.16-2.74,8.6-6,13.09-9.85,11.95-10.25,24.11-24.68,31.65-44.22M328.47,228.34c-.03.05-.07.11-.1.17.03-.06.07-.11.1-.17M348.91,199.17c-.19.23-.38.46-.57.7.19-.23.39-.46.57-.7M344.75,204.39c-.19.25-.39.5-.58.75.19-.25.38-.5.58-.75M340.47,210.1c-.06.08-.11.16-.17.24.06-.08.11-.16.17-.24M336.39,215.92s0,0,0,0c0,0,0,0,0,0M332.54,221.77c-.09.14-.17.27-.26.4.08-.14.17-.27.26-.4M329.34,242.02c8.71-15.99,18.41-30.2,28.95-42.31,16.28-18.7,34.32-32.4,53.62-40.73l1.64-.7c5.39-2.25,10.75-4,15.95-5.19.69-.16,1.36-.3,2-.44l.99-.2s-54.03,15.22-103.15,89.56"/>
  <g>
    <path class="cls-2" d="M586.82,278.68c-5.33,2.43-11.46,3.65-18.41,3.65-6.33,0-12.18-1.04-17.54-3.13-5.37-2.08-10.02-5.04-13.95-8.86-3.94-3.82-7.03-8.4-9.26-13.72-2.24-5.33-3.36-11.19-3.36-17.6s1.14-12.51,3.42-17.83c2.28-5.33,5.42-9.86,9.44-13.61,4.01-3.74,8.72-6.62,14.13-8.63,5.4-2.01,11.23-3.01,17.49-3.01,5.79,0,11.48,1.02,17.08,3.07,5.6,2.05,10.13,5.04,13.61,8.97l-13.43,13.43c-1.85-2.55-4.28-4.44-7.3-5.67-3.01-1.23-6.1-1.85-9.26-1.85-3.47,0-6.66.64-9.55,1.91s-5.38,3.03-7.47,5.27c-2.08,2.24-3.71,4.88-4.86,7.93-1.16,3.05-1.74,6.39-1.74,10.02s.58,7.1,1.74,10.19c1.16,3.09,2.76,5.73,4.81,7.93,2.04,2.2,4.5,3.92,7.35,5.15,2.86,1.24,5.98,1.85,9.38,1.85,3.94,0,7.37-.77,10.31-2.32,2.93-1.54,5.29-3.55,7.06-6.02l13.78,12.97c-3.63,4.17-8.11,7.47-13.43,9.9Z"/>
    <path class="cls-2" d="M692.78,238.79c0,6.48-1.12,12.41-3.36,17.78-2.24,5.37-5.35,9.96-9.32,13.78-3.98,3.82-8.71,6.77-14.19,8.86-5.48,2.08-11.43,3.13-17.83,3.13s-12.33-1.04-17.78-3.13c-5.44-2.08-10.15-5.04-14.13-8.86-3.98-3.82-7.08-8.41-9.32-13.78-2.24-5.36-3.36-11.29-3.36-17.78s1.12-12.49,3.36-17.78c2.24-5.29,5.34-9.79,9.32-13.49,3.98-3.71,8.69-6.56,14.13-8.57,5.44-2.01,11.37-3.01,17.78-3.01s12.35,1,17.83,3.01c5.48,2.01,10.21,4.86,14.19,8.57,3.98,3.71,7.08,8.2,9.32,13.49,2.24,5.29,3.36,11.21,3.36,17.78ZM671.59,238.79c0-3.55-.58-6.87-1.74-9.96-1.16-3.09-2.76-5.73-4.81-7.93-2.05-2.2-4.52-3.94-7.41-5.21s-6.08-1.91-9.55-1.91-6.64.64-9.5,1.91c-2.86,1.27-5.33,3.01-7.41,5.21-2.08,2.2-3.69,4.85-4.81,7.93-1.12,3.09-1.68,6.41-1.68,9.96s.58,7.12,1.74,10.25c1.16,3.13,2.76,5.81,4.81,8.05,2.04,2.24,4.5,4,7.35,5.27,2.86,1.27,6.02,1.91,9.5,1.91s6.64-.64,9.5-1.91c2.86-1.27,5.33-3.03,7.41-5.27,2.08-2.24,3.71-4.92,4.86-8.05,1.16-3.13,1.74-6.54,1.74-10.25Z"/>
    <path class="cls-2" d="M757.98,280.13l-33-53.62h-.35l.46,53.62h-19.22v-81.99h22.58l32.89,53.5h.35l-.46-53.5h19.22v81.99h-22.47Z"/>
    <path class="cls-2" d="M841.24,280.13l-17.8-32.54h-6.75v32.54h-19.34v-81.99h31.27c3.94,0,7.78.41,11.52,1.22,3.74.81,7.1,2.18,10.07,4.11,2.97,1.93,5.34,4.48,7.12,7.64,1.78,3.17,2.66,7.1,2.66,11.81,0,5.56-1.51,10.23-4.52,14.01-3.01,3.78-7.18,6.48-12.51,8.11l21.42,35.09h-23.16ZM840.43,223.27c0-1.93-.41-3.49-1.22-4.69-.81-1.2-1.86-2.12-3.14-2.78-1.28-.65-2.72-1.1-4.31-1.33s-3.12-.35-4.6-.35h-10.59v19.11h9.43c1.63,0,3.3-.13,5-.41,1.71-.27,3.26-.75,4.65-1.45s2.54-1.7,3.43-3.01c.89-1.31,1.34-3.01,1.34-5.1Z"/>
    <path class="cls-2" d="M929.71,280.13l-6.37-16.1h-31.73l-6.02,16.1h-21.54l34.39-81.99h19.22l34.05,81.99h-22ZM907.71,220.03l-10.42,28.14h20.61l-10.19-28.14Z"/>
    <path class="cls-2" d="M1035.09,238.9c0,7.18-1.33,13.38-4,18.59-2.66,5.21-6.18,9.5-10.54,12.85-4.36,3.36-9.28,5.83-14.76,7.41-5.48,1.58-11.04,2.37-16.68,2.37h-30.57v-81.99h29.65c5.79,0,11.5.68,17.14,2.03,5.63,1.35,10.65,3.59,15.05,6.72,4.4,3.13,7.95,7.32,10.65,12.56,2.7,5.25,4.05,11.74,4.05,19.45ZM1014.48,238.9c0-4.63-.75-8.47-2.26-11.52-1.51-3.05-3.51-5.48-6.02-7.3-2.51-1.81-5.37-3.11-8.57-3.88-3.2-.77-6.5-1.16-9.9-1.16h-9.84v47.94h9.38c3.55,0,6.97-.41,10.25-1.22,3.28-.81,6.18-2.14,8.69-4,2.51-1.85,4.52-4.32,6.02-7.41,1.51-3.09,2.26-6.91,2.26-11.46Z"/>
  </g>
  <g>
    <path class="cls-1" d="M1061.37,269.94h36.59v10.19h-48.06v-81.99h11.46v71.8Z"/>
    <path class="cls-1" d="M1119.39,280.13h-12.74l35.55-81.99h10.42l35.2,81.99h-12.97l-8.34-20.15h-38.91l-8.22,20.15ZM1131.66,249.9h30.69l-15.29-38.45-15.4,38.45Z"/>
    <path class="cls-1" d="M1198.37,198.14h28.26c3.09,0,6.18.35,9.26,1.04,3.09.69,5.85,1.85,8.28,3.47,2.43,1.62,4.4,3.75,5.91,6.37,1.51,2.63,2.26,5.91,2.26,9.84,0,4.56-1.31,8.38-3.94,11.46-2.63,3.09-6.1,5.21-10.42,6.37v.23c2.62.31,5.06.98,7.3,2.03,2.24,1.04,4.17,2.41,5.79,4.11,1.62,1.7,2.88,3.71,3.76,6.02.89,2.32,1.33,4.9,1.33,7.76,0,3.94-.81,7.37-2.43,10.31-1.62,2.93-3.82,5.35-6.6,7.24-2.78,1.89-6.04,3.32-9.79,4.28-3.75.97-7.74,1.45-11.99,1.45h-26.98v-81.99ZM1209.83,232.77h14.94c2.16,0,4.23-.25,6.2-.75,1.97-.5,3.69-1.27,5.15-2.32,1.47-1.04,2.62-2.35,3.47-3.94.85-1.58,1.27-3.49,1.27-5.73,0-4.4-1.62-7.55-4.86-9.44-3.24-1.89-7.6-2.84-13.09-2.84h-13.09v25.01ZM1209.83,270.4h14.36c2.39,0,4.81-.21,7.24-.64,2.43-.42,4.63-1.18,6.6-2.26,1.97-1.08,3.55-2.53,4.75-4.34,1.2-1.81,1.79-4.11,1.79-6.89,0-4.86-1.66-8.38-4.98-10.54-3.32-2.16-8.11-3.24-14.36-3.24h-15.4v27.91Z"/>
    <path class="cls-1" d="M1313.47,213.31c-1.62-2.24-3.82-4.07-6.6-5.5-2.78-1.43-5.91-2.14-9.38-2.14-1.85,0-3.73.25-5.62.75-1.89.5-3.61,1.31-5.15,2.43-1.55,1.12-2.8,2.51-3.76,4.17-.97,1.66-1.45,3.65-1.45,5.96s.44,4.11,1.33,5.62c.89,1.51,2.08,2.78,3.59,3.82,1.51,1.04,3.28,1.93,5.33,2.66,2.04.73,4.23,1.49,6.54,2.26,2.78.85,5.6,1.81,8.45,2.9,2.86,1.08,5.44,2.51,7.76,4.28,2.32,1.78,4.21,4,5.67,6.66,1.47,2.66,2.2,6.04,2.2,10.13s-.79,7.93-2.37,11.06c-1.58,3.13-3.69,5.71-6.31,7.76-2.63,2.05-5.66,3.57-9.09,4.57-3.44,1-6.97,1.51-10.6,1.51-5.17,0-10.17-1-15-3.01-4.83-2.01-8.82-4.98-11.99-8.92l8.92-7.53c1.93,2.86,4.52,5.17,7.76,6.95,3.24,1.78,6.75,2.66,10.54,2.66,1.93,0,3.86-.27,5.79-.81,1.93-.54,3.69-1.39,5.27-2.55,1.58-1.16,2.88-2.61,3.88-4.34,1-1.74,1.51-3.84,1.51-6.31s-.52-4.53-1.56-6.2c-1.04-1.66-2.45-3.07-4.23-4.23-1.78-1.16-3.84-2.14-6.2-2.95-2.36-.81-4.85-1.64-7.47-2.49-2.63-.77-5.21-1.72-7.76-2.84-2.55-1.12-4.83-2.55-6.83-4.28-2.01-1.74-3.63-3.88-4.86-6.43-1.24-2.55-1.85-5.71-1.85-9.5,0-4.09.83-7.6,2.49-10.54,1.66-2.93,3.82-5.36,6.48-7.3,2.66-1.93,5.67-3.34,9.03-4.23,3.36-.89,6.73-1.33,10.13-1.33,4.79,0,9.26.85,13.43,2.55,4.17,1.7,7.53,3.98,10.07,6.83l-8.11,7.87Z"/>
  </g>
</svg>